<svg width="48" height="32" viewBox="0 0 48 32" fill="none" xmlns="http://www.w3.org/2000/svg">
  <rect width="48" height="32" rx="4" fill="white"/>
  <path d="M18.5 20.5L19.8 13.5H17.5L16.2 20.5H18.5ZM26.5 13.7C26 13.5 25.2 13.3 24.2 13.3C22 13.3 20.5 14.4 20.4 16C20.4 17.2 21.5 17.9 22.4 18.3C23.3 18.7 23.6 18.9 23.6 19.2C23.6 19.7 23 20 22.4 20C21.5 20 21 19.9 20.3 19.6L20 19.4L19.7 21.4C20.3 21.7 21.3 21.9 22.3 21.9C24.7 21.9 26.1 20.8 26.2 19.1C26.2 18.2 25.6 17.5 24.4 16.9C23.6 16.5 23.2 16.3 23.2 15.9C23.2 15.6 23.5 15.2 24.3 15.2C25 15.2 25.5 15.3 26 15.5L26.3 15.7L26.5 13.7ZM31.5 13.5H29.8C29.3 13.5 28.9 13.7 28.7 14.1L25.5 20.5H27.9L28.3 19.4H31.3L31.5 20.5H33.6L31.8 13.5H31.5ZM29.7 17.5C29.9 16.9 30.4 15.5 30.4 15.5C30.4 15.5 30.6 14.9 30.7 14.7L30.9 15.7C30.9 15.7 31.4 17.7 31.5 18.2H29.7V17.5ZM16.5 13.5L14.2 18.7L14 17.6C13.6 16.3 12.4 14.9 11 14.1L13 20.5H15.5L19 13.5H16.5Z" fill="#006FCF"/>
  <path d="M13.5 13.5H10.1L10 13.7C12.7 14.4 14.5 16.2 15.2 18.2L14.4 14.2C14.3 13.8 13.9 13.5 13.5 13.5Z" fill="#F9A533"/>
</svg>
