<svg width="200" height="35" viewBox="0 0 200 35" fill="none" xmlns="http://www.w3.org/2000/svg">
<g clip-path="url(#clip0_1302_71)">
<path d="M33.9169 16.7144L29.003 16.0903L9.1393 13.3751L-0.545044 34.9999L37.7619 17.2058L33.9169 16.7144Z" fill="#D7A4A8"/>
<path d="M36.8221 10.1722L31.9082 9.54809L12.0446 6.83289L2.38892 28.4433L40.6672 10.6636L36.8221 10.1722Z" fill="#A84B5A"/>
<path d="M39.8781 3.33931L34.9678 2.7152L15.1006 0L5.43414 21.6284L43.7232 3.8307L39.8781 3.33931Z" fill="#8E1537"/>
<path d="M117.256 34.7597V5.72815L103.128 17.5251L88.9993 5.72815V34.7919H92.8659V13.5904L103.128 22.4139L113.393 13.5904V34.7597H117.256Z" fill="#010101"/>
<path d="M200.545 5.76037H196.682V26.6032L172.288 5.71375V34.7704H176.151V14.1033L200.545 34.8062V5.76037Z" fill="#010101"/>
<path d="M136.076 20.4842L136.865 19.4835L147.464 5.75684H142.622L134.121 16.7791L125.624 5.75684H120.739L131.341 19.4907L132.209 20.5631V34.7632H136.076V20.4842Z" fill="#010101"/>
<path d="M84.8027 5.79626H80.9362V34.7274H84.8027V5.79626Z" fill="#010101"/>
<path d="M72.873 5.75681V18.2137H52.3458V5.74963H48.4792V34.7489H52.3458V22.0767H72.873V34.7489H76.736V5.75681H72.873Z" fill="#010101"/>
<path d="M144.616 34.7777L154.559 14.1285L164.483 34.7777H168.806L166.352 29.9534L154.559 5.72461L142.773 29.9534L140.291 34.7777H144.616Z" fill="#010101"/>
</g>
<defs>
<clipPath id="clip0_1302_71">
<rect width="200" height="35" fill="white"/>
</clipPath>
</defs>
</svg>
