<?xml version="1.0" encoding="utf-8"?>
<!-- Generator: Adobe Illustrator 27.5.0, SVG Export Plug-In . SVG Version: 6.00 Build 0)  -->
<svg version="1.1" id="Layer_1" xmlns="http://www.w3.org/2000/svg" xmlns:xlink="http://www.w3.org/1999/xlink" x="0px" y="0px"
	 viewBox="0 0 2390.75 524.25" style="enable-background:new 0 0 2390.75 524.25;" xml:space="preserve">
<style type="text/css">
	.st0{fill:#8E1537;}
	.st1{fill:#D7A4A8;}
	.st2{fill:#A84B5A;}
	.st3{fill:#010101;}
</style>
<g>
	<g>
		<polygon class="st0" points="679.77,45.76 612.46,37.2 340.29,0 207.63,296.27 732.44,52.5 		"/>
		<polygon class="st1" points="609.84,273.75 542.53,265.18 270.37,227.99 137.71,524.25 662.52,280.48 		"/>
		<polygon class="st2" points="472.14,193.9 404.83,185.33 132.66,148.13 0,444.4 524.81,200.63 		"/>
	</g>
	<polygon class="st3" points="1393.57,245.74 1526.54,522.39 1584.42,522.39 1551.4,457.57 1393.57,133.21 1235.77,457.55 
		1202.43,522.39 1260.31,522.39 	"/>
	<polygon class="st3" points="1147.64,133.21 1095.9,133.21 1095.9,412.83 769.38,133.21 769.38,522.66 821.12,522.65 
		821.12,245.54 1147.64,522.65 	"/>
	<path class="st3" d="M2360.55,326.13c-15.72-15.24-37.07-23.98-58.57-23.98h-108.43v0.04h-77.32c-25.75,0-35.1-32.78-35.1-54.81
		c0-6.51,0.99-63.57,35.1-63.57h107.79v-0.04h63.72c21.92,0,40.16,16.06,43.57,37.02l50.02-0.4c-3.59-48.5-44.2-86.86-93.59-86.86
		h-63.72h-6.06h-103.05c-56.77,0-89.32,41.5-89.32,113.85c0,44.75,16.53,70.15,30.39,83.59c15.82,15.33,37.3,24.13,58.93,24.13
		h109.1v-0.37h76.65c25.59,0,34.88,32.57,34.88,54.47c0,6.47-0.98,61.13-34.88,61.13h-95.93v-0.06h-62.6
		c-32.32,0-59.16-23.86-63.85-54.88h-52.41c4.94,59.81,55.2,106.97,116.26,106.97h51.41h11.19h97.24
		c56.42,0,88.77-41.24,88.77-113.15C2390.75,364.73,2374.32,339.48,2360.55,326.13z"/>
	<path class="st3" d="M1880.71,133.54l-240.96-0.16v389.28h51.73V355.11h189.23c21.63,0,43.11-8.79,58.93-24.13
		c13.86-13.44,30.39-38.85,30.39-83.59C1970.03,175.03,1937.48,133.54,1880.71,133.54z M1879.4,302.19h-187.91V185.68v-1.86h187.91
		c34.11,0,35.1,57.06,35.1,63.57C1914.49,269.42,1905.15,302.19,1879.4,302.19z"/>
</g>
</svg>
