<svg width="127" height="20" fill="none" xmlns="http://www.w3.org/2000/svg"><path d="M13.046 5l-1.413 9.375h2.26L15.305 5h-2.26zM9.671 5l-2.379 6.402-.253-.966a9.876 9.876 0 00-3.366-3.892l2.176 7.831 2.57-.005L12.245 5H9.67z" fill="#394B5A" fill-opacity=".8"/><path d="M5.94 5.783a1.051 1.051 0 00-.383-.6.881.881 0 00-.645-.176H1.255l-.03.19c3.06 1.053 5.344 4.16 6.122 6.365l-1.408-5.78zM20.268 6.898a4.478 4.478 0 011.833.348l.22.105.332-1.969A6.26 6.26 0 0020.46 5c-2.42 0-4.125 1.232-4.139 2.997-.015 1.305 1.215 2.033 2.145 2.468.954.446 1.274.73 1.27 1.127-.008.608-.761.887-1.465.887a5.09 5.09 0 01-2.306-.476l-.314-.145-.345 2.033a7.68 7.68 0 002.728.484c2.574 0 4.247-1.217 4.265-3.104.01-1.032-.643-1.82-2.058-2.466-.856-.421-1.38-.7-1.375-1.126-.001-.377.443-.781 1.402-.781zM29.293 5.01H27.45c-.26-.036-.524.021-.75.162-.227.14-.404.358-.503.617l-3.545 8.586h2.507s.409-1.155.502-1.408l3.057.005c.071.328.29 1.403.29 1.403h2.215l-1.931-9.364zm-2.944 6.04l.95-2.619c-.012.026.195-.542.319-.894l.16.808.553 2.705H26.35z" fill="#394B5A" fill-opacity=".8"/><path fill-rule="evenodd" clip-rule="evenodd" d="M61.396 6.32c.146-.325.311-.64.493-.942h-.02c-.072.15-.145.284-.214.413-.097.179-.187.347-.263.53h.004zm2-2.813a8.067 8.067 0 00-5.643-2.257c-4.593.135-8.406 3.949-8.406 8.75s3.77 8.75 8.449 8.75c2.189 0 4.123-.88 5.633-2.25 1.5 1.396 3.477 2.25 5.632 2.25 4.68 0 8.45-3.949 8.45-8.75s-3.77-8.75-8.493-8.75c-2.16 0-4.131.857-5.621 2.257zm-2.61 8.736l.13-.807c-.018 0-.043.007-.073.016a.503.503 0 01-.144.029c-.303 0-.346-.18-.303-.27l.26-1.615h.477l.13-.897h-.434l.087-.539h-.91s-.52 3.051-.52 3.41c0 .539.303.808.737.808.26 0 .476-.09.563-.135zm1.863.135c-.693 0-1.56-.314-1.56-1.615 0-1.167.693-2.199 1.56-2.154.996 0 1.3.763 1.3 1.346 0 .27-.13.853-.13.853h-1.82s-.173.762.823.762c.477 0 .953-.224.953-.224l-.173.897s-.303.135-.953.135zm.391-2.353c.01-.114.048-.608-.391-.608-.384 0-.515.378-.574.549-.014.04-.024.07-.033.079h.997l.001-.02zm5.285 2.218l.173-1.032s-.433.225-.78.225c-.606 0-.91-.494-.91-1.077 0-1.122.52-1.705 1.17-1.705.434 0 .824.269.824.269l.13-.987s-.52-.225-1.04-.225c-1.04 0-2.037.943-2.037 2.693 0 1.166.52 1.93 1.603 1.93.39.044.867-.09.867-.09zm-13.519-3.5s.477-.18 1.084-.18c.303 0 1.17.046 1.17 1.168l-.347 2.557h-.737l.044-.359c-.01 0-.03.018-.063.046a1.307 1.307 0 01-.89.358c-.347 0-.867-.18-.867-1.032 0-1.077.823-1.391 1.603-1.391h.39s.043-.045.043-.224c0-.27-.26-.314-.563-.314-.607 0-.997.179-.997.179l.13-.808zm.65 2.782c.52 0 .607-.762.607-.897h-.13c-.693 0-.823.314-.823.538 0 .135.086.36.346.36zm2.47.808h.022c.26.002 1.32.008 1.32-1.211 0-.72-.412-.91-.728-1.056-.196-.09-.354-.163-.354-.335 0-.225.173-.314.476-.314.13 0 .607.045.607.045l.13-.853s-.303-.09-.867-.09c-.65 0-1.343.27-1.343 1.212 0 .668.434.887.763 1.053.201.102.364.184.364.338 0 .27-.304.314-.52.314-.39 0-.824-.135-.824-.135l-.13.853c.087.09.347.18 1.084.18zm17.678-3.23l.173-1.257.953.09-.65 4.442h-.91l.044-.314s-.347.36-.867.36c-.78 0-1.126-.763-1.126-1.526 0-1.212.693-2.244 1.516-2.244.52 0 .867.449.867.449zm-.997 2.333c.52 0 .737-.673.737-1.167 0-.538-.173-.762-.477-.807-.433 0-.736.448-.736 1.211 0 .494.173.763.476.763zm-23.613.853l.52-3.32.086 3.32h.607l1.17-3.32-.477 3.32h.953l.737-4.443h-1.473l-.91 2.738-.044-2.738h-1.3l-.736 4.443h.867zm13.986-.772c-.037.245-.076.504-.122.771h-.996l.563-3.59h.867l-.087.494s.347-.538.737-.538h.173l-.036.09c-.084.21-.192.48-.267.986-.536-.185-.66.637-.832 1.787zm5.424-2.953c-.606 0-1.083.18-1.083.18l-.13.807s.39-.18.997-.18c.303 0 .563.045.563.315 0 .18-.043.224-.043.224h-.39c-.78 0-1.603.314-1.603 1.391 0 .853.52 1.032.866 1.032.479 0 .769-.251.89-.357h.001c.033-.029.053-.047.062-.047l-.043.36h.823l.347-2.558c0-1.122-.953-1.167-1.257-1.167zm.217 2.064c0 .135-.087.897-.606.897-.26 0-.347-.224-.347-.359 0-.224.13-.538.823-.538h.13zm1.854.89c-.036.243-.075.503-.12.77h-.997l.563-3.59h.866l-.086.494s.347-.538.736-.538h.174l-.036.09c-.084.21-.192.48-.268.986-.536-.185-.659.637-.832 1.787z" fill="#394B5A" fill-opacity=".8"/><path d="M109.751 7.244h-1.519l.761-1.83.76 1.83h-.002zm.999 2.375h1.72L110 4.023h-1.967l-2.47 5.596h1.679l.464-1.12h2.574l.472 1.12h-.002zm7.452 0h1.512V4.023h-2.35l-1.255 3.486-1.247-3.486h-2.39v5.596h1.51V5.702l1.438 3.917h1.344l1.438-3.926V9.62zm-8.971 5.114v-.87h3.159V12.6h-3.159v-.871h3.239v-1.296h-4.766v5.596h4.766v-1.296h-3.239zm8.945-1.516l1.536 1.636v-3.256l-1.536 1.62zm-.47 2.812h2.006l-2.654-2.814 2.654-2.782h-1.974l-1.639 1.792-1.623-1.792h-2.006l2.639 2.8-2.639 2.798h1.95l1.646-1.807 1.64 1.807v-.002zM119.712 20v-3.17h-2.413l-1.242-1.373-1.247 1.374h-7.955v-6.402h-2.568l3.185-7.208h3.072l1.096 2.47v-2.47h3.802l.661 1.861.665-1.86h2.946V0h-20v19.998h19.998V20z" fill="#394B5A" fill-opacity=".8"/></svg>