<svg width="240" height="28" viewBox="0 0 240 28" fill="none" xmlns="http://www.w3.org/2000/svg">
<path d="M18.2631 7L16.2852 20.125H19.4485L21.428 7H18.2631Z" fill="#526C82" fill-opacity="0.8"/>
<path d="M13.5397 7L10.2088 15.9634L9.85371 14.61C8.7711 12.385 7.14488 10.5042 5.14258 9.1614L8.18828 20.125L11.7868 20.1186L17.1426 7H13.5397Z" fill="#526C82" fill-opacity="0.8"/>
<path d="M8.31568 8.09567C8.23487 7.75372 8.04476 7.45551 7.78038 7.25596C7.516 7.05642 7.19515 6.969 6.87695 7.0098H1.75731L1.71484 7.27588C6.00056 8.75 9.19661 13.0985 10.2863 16.1875L8.31568 8.09567Z" fill="#526C82" fill-opacity="0.8"/>
<path d="M28.3745 9.6572C29.2539 9.63741 30.1277 9.80315 30.9402 10.1439L31.2497 10.2909L31.7134 7.53497C30.7292 7.17447 29.6894 6.9934 28.6425 7.00018C25.2551 7.00018 22.8675 8.72488 22.849 11.1965C22.827 13.0228 24.5498 14.0425 25.8511 14.6512C27.1869 15.2752 27.6348 15.6718 27.6286 16.2289C27.618 17.0801 26.5635 17.4705 25.5787 17.4705C24.4663 17.5039 23.3614 17.276 22.3509 16.8047L21.91 16.6014L21.4277 19.4474C22.6504 19.9031 23.9441 20.1326 25.2472 20.1248C28.8506 20.1248 31.1924 18.4206 31.2171 15.7796C31.232 14.3348 30.3177 13.2323 28.3366 12.3276C27.1375 11.7375 26.404 11.3471 26.411 10.75C26.4101 10.2223 27.0317 9.6572 28.3745 9.6572Z" fill="#526C82" fill-opacity="0.8"/>
<path d="M41.0105 7.01506H38.4317C38.0679 6.96409 37.6985 7.04332 37.3811 7.24041C37.0638 7.4375 36.8163 7.74137 36.6773 8.10464L31.7148 20.125H35.2246C35.2246 20.125 35.7971 18.5086 35.9269 18.1546L40.2068 18.1601C40.3065 18.6198 40.6143 20.125 40.6143 20.125H43.7148L41.0105 7.01506ZM36.8888 15.4697C37.1638 14.7166 38.2203 11.8037 38.2203 11.8037C38.2022 11.8396 38.4928 11.0451 38.6656 10.5514L38.8908 11.6823L39.6644 15.4697H36.8888Z" fill="#526C82" fill-opacity="0.8"/>
<path fill-rule="evenodd" clip-rule="evenodd" d="M85.1543 8.8487C85.3586 8.39331 85.5892 7.95285 85.8439 7.52947H85.8157C85.7144 7.73925 85.6131 7.92714 85.5163 8.10684L85.5162 8.10687C85.381 8.35766 85.2544 8.59252 85.1484 8.8487H85.1543ZM87.9547 4.91047C85.8967 2.92643 83.1244 1.75 80.0531 1.75C73.6232 1.93846 68.2852 7.27819 68.2852 14C68.2852 20.7217 73.5625 26.2499 80.1137 26.2499C83.1783 26.2499 85.8858 25.017 88.0002 23.1007C90.0989 25.055 92.8674 26.2499 95.885 26.2499C102.436 26.2499 107.714 20.7217 107.714 14C107.714 7.27819 102.436 1.75 95.8244 1.75C92.801 1.75 90.0408 2.94953 87.9547 4.91047ZM84.2997 17.1408L84.4817 16.01C84.4565 16.01 84.421 16.0208 84.3794 16.0334C84.3205 16.0513 84.2494 16.0728 84.1784 16.0728C83.7538 16.0728 83.6931 15.8216 83.7538 15.6959L84.1177 13.4344H84.785L84.9669 12.178H84.3603L84.4817 11.4241H83.2078C83.2078 11.4241 82.4799 15.6959 82.4799 16.1985C82.4799 16.9523 82.9045 17.3292 83.5111 17.3292C83.8751 17.3292 84.1784 17.2036 84.2997 17.1408ZM86.9078 17.3294C85.9372 17.3294 84.7241 16.8896 84.7241 15.0678C84.7241 13.4345 85.6946 11.9896 86.9078 12.0525C88.3029 12.0525 88.7276 13.1204 88.7276 13.9371C88.7276 14.314 88.5456 15.1306 88.5456 15.1306H85.9979C85.9979 15.1306 85.7553 16.1986 87.1504 16.1986C87.8177 16.1986 88.4849 15.8845 88.4849 15.8845L88.2423 17.1409C88.2423 17.1409 87.8177 17.3294 86.9078 17.3294ZM87.4555 14.0344C87.468 13.8758 87.5223 13.1832 86.9078 13.1832C86.3703 13.1832 86.1871 13.713 86.1044 13.952C86.0845 14.0097 86.0704 14.0505 86.0586 14.0627H87.4537C87.4537 14.0577 87.4545 14.048 87.4555 14.0344ZM94.8542 17.1409L95.0968 15.6961C95.0968 15.6961 94.4902 16.0102 94.005 16.0102C93.1557 16.0102 92.7311 15.3191 92.7311 14.5025C92.7311 12.932 93.459 12.1153 94.3689 12.1153C94.9755 12.1153 95.5215 12.4922 95.5215 12.4922L95.7034 11.1102C95.7034 11.1102 94.9755 10.7961 94.2476 10.7961C92.7918 10.7961 91.3966 12.1153 91.3966 14.5653C91.3966 16.1986 92.1245 17.2666 93.641 17.2666C94.187 17.3294 94.8542 17.1409 94.8542 17.1409ZM75.9283 12.2407C75.9283 12.2407 76.5956 11.9894 77.4448 11.9894C77.8694 11.9894 79.0826 12.0522 79.0826 13.6227L78.5973 17.2035H77.5661L77.6268 16.7009C77.614 16.7009 77.585 16.7261 77.5393 16.7657C77.3681 16.9142 76.9624 17.2663 76.2923 17.2663C75.807 17.2663 75.0791 17.015 75.0791 15.8214C75.0791 14.3137 76.2316 13.874 77.3235 13.874H77.8694C77.8694 13.874 77.9301 13.8112 77.9301 13.5599C77.9301 13.183 77.5661 13.1201 77.1415 13.1201C76.2923 13.1201 75.7464 13.3714 75.7464 13.3714L75.9283 12.2407ZM76.8382 16.1355C77.5661 16.1355 77.6875 15.0676 77.6875 14.8791H77.5055C76.5349 14.8791 76.3529 15.3189 76.3529 15.633C76.3529 15.8214 76.4743 16.1355 76.8382 16.1355ZM80.2954 17.2667L80.3259 17.2668C80.6915 17.2689 82.1758 17.277 82.1758 15.5706C82.1758 14.5625 81.5981 14.2962 81.1558 14.0924C80.8815 13.966 80.6593 13.8636 80.6593 13.6232C80.6593 13.309 80.902 13.1834 81.3266 13.1834C81.5085 13.1834 82.1758 13.2462 82.1758 13.2462L82.3578 12.0526C82.3578 12.0526 81.9332 11.927 81.1446 11.927C80.2347 11.927 79.2642 12.3039 79.2642 13.6232C79.2642 14.5582 79.8708 14.865 80.3316 15.0981C80.6138 15.2408 80.8413 15.3559 80.8413 15.5706C80.8413 15.9475 80.4167 16.0103 80.1134 16.0103C79.5674 16.0103 78.9609 15.8219 78.9609 15.8219L78.7789 17.0154C78.9002 17.1411 79.2642 17.2667 80.2954 17.2667ZM105.045 12.7439L105.287 10.9849L106.622 11.1106L105.712 17.3298H104.438L104.499 16.89C104.499 16.89 104.013 17.3926 103.285 17.3926C102.194 17.3926 101.708 16.3247 101.708 15.2567C101.708 13.5606 102.679 12.1157 103.831 12.1157C104.559 12.1157 105.045 12.7439 105.045 12.7439ZM103.649 16.0106C104.377 16.0106 104.681 15.0682 104.681 14.3772C104.681 13.6234 104.438 13.3093 104.013 13.2465C103.407 13.2465 102.982 13.8747 102.982 14.9426C102.982 15.6336 103.225 16.0106 103.649 16.0106ZM70.5903 17.2041L71.3182 12.5554L71.4395 17.2041H72.2887L73.9265 12.5554L73.2593 17.2041H74.5938L75.625 10.9849H73.5626L72.2887 14.817L72.2281 10.9849H70.4083L69.3771 17.2041H70.5903ZM90.1707 16.124C90.1193 16.4661 90.0649 16.829 90.0011 17.2034H88.6059L89.3945 12.1778H90.6076L90.4863 12.8688C90.4863 12.8688 90.9716 12.115 91.5175 12.115H91.7602C91.7444 12.1558 91.7276 12.1976 91.7101 12.2413L91.71 12.2417L91.71 12.2417C91.5925 12.5347 91.4411 12.9124 91.3356 13.6227C90.5852 13.3636 90.4124 14.5145 90.1707 16.124ZM97.7655 11.9894C96.9163 11.9894 96.2491 12.2407 96.2491 12.2407L96.0671 13.3714C96.0671 13.3714 96.613 13.1201 97.4622 13.1201C97.8869 13.1201 98.2508 13.183 98.2508 13.5599C98.2508 13.8112 98.1902 13.874 98.1902 13.874H97.6442C96.5524 13.874 95.3998 14.3137 95.3998 15.8214C95.3998 17.015 96.1277 17.2663 96.613 17.2663C97.2831 17.2663 97.6889 16.9142 97.86 16.7657C97.9058 16.7261 97.9347 16.7009 97.9475 16.7009L97.8869 17.2035H99.0394L99.5247 13.6227C99.5247 12.0522 98.1902 11.9894 97.7655 11.9894ZM98.0688 14.8791C98.0688 15.0676 97.9475 16.1355 97.2196 16.1355C96.8557 16.1355 96.7343 15.8214 96.7343 15.633C96.7343 15.3189 96.9163 14.8791 97.8869 14.8791H98.0688ZM100.665 16.124C100.613 16.4661 100.559 16.829 100.495 17.2034H99.1L99.8886 12.1778H101.102L100.98 12.8688C100.98 12.8688 101.466 12.115 102.012 12.115H102.254C102.239 12.1559 102.222 12.1978 102.204 12.2417C102.087 12.5347 101.935 12.9123 101.83 13.6227C101.079 13.3636 100.907 14.5145 100.665 16.124Z" fill="#526C82" fill-opacity="0.8"/>
<path d="M152.052 10.1421H149.925L150.99 7.57929L152.055 10.1421H152.052ZM153.45 13.4662H155.858L152.4 5.63215H149.646L146.189 13.4662H148.539L149.188 11.8982H152.792L153.453 13.4662H153.45ZM163.883 13.4662H166V5.63215H162.709L160.953 10.5121L159.206 5.63215H155.861V13.4662H157.975V7.98267L159.989 13.4662H161.869L163.883 7.97054V13.4662ZM151.324 20.627V19.4077H155.746V17.6395H151.324V16.4203H155.858V14.6066H149.185V22.4406H155.858V20.627H151.324ZM163.847 18.5039L165.997 20.7938V16.2353L163.847 18.5039ZM163.188 22.4406H165.997L162.282 18.5009L165.997 14.6066H163.234L160.938 17.1148L158.666 14.6066H155.858L159.552 18.5251L155.858 22.4437H158.588L160.893 19.9142L163.188 22.4437V22.4406ZM165.997 28V23.5628H162.618L160.88 21.6399L159.133 23.5628H147.997V14.6005H144.403L148.861 4.50997H153.162L154.696 7.9675V4.50997H160.019L160.944 7.11525L161.875 4.50997H166V0H138V27.997H165.997V28Z" fill="#526C82" fill-opacity="0.8"/>
<path d="M201.625 9.93262H203.629C204.254 11.6537 204.892 13.4053 205.602 15.3597C206.353 13.5414 206.338 11.6842 206.986 9.94234H208.755C208.138 12.9191 207.548 15.7764 206.944 18.6935H204.963C204.3 16.8807 203.645 15.093 202.881 12.9983C202.422 15.1166 202.04 16.8877 201.646 18.706H199.924C200.269 15.707 201.085 12.8719 201.625 9.93262Z" fill="#526C82" fill-opacity="0.8"/>
<path d="M232.51 12.6249H231.013C230.843 12.3012 230.679 11.9859 230.53 11.7053C228.862 11.0316 228.081 11.3525 227.945 12.8166C228.204 12.9574 228.472 13.0817 228.746 13.1888C229.261 13.3597 229.787 13.4916 230.309 13.6403C232.405 14.2362 232.914 15.8489 231.554 17.5866C230.413 19.0451 227.667 19.5633 226.09 18.6173C225.128 18.0408 224.837 17.213 225.219 16.0017H226.716C226.881 16.3365 227.059 16.6962 227.227 17.0324C227.882 17.4672 228.568 17.3671 229.227 17.2505C229.793 17.1491 230.207 16.7976 230.284 15.9628C230.012 15.8072 229.698 15.5669 229.345 15.4433C228.794 15.2516 228.208 15.1655 227.648 14.9863C225.873 14.4307 225.365 12.9388 226.394 11.34C227.444 9.70782 230.111 9.09941 231.722 10.137C232.473 10.6204 232.834 11.3233 232.725 12.2387C232.706 12.3582 232.599 12.4693 232.51 12.6249Z" fill="#526C82" fill-opacity="0.8"/>
<path d="M207.785 18.7251C209.498 15.6511 211.097 12.7854 212.684 9.94897H214.861C215.269 12.866 215.666 15.7094 216.086 18.682H214.049C213.922 18.1848 213.8 17.7097 213.655 17.1416H210.781L209.815 18.7251H207.785ZM213.297 12.8618L213.035 12.7882L211.771 15.2358H213.549C213.458 14.3718 213.383 13.6189 213.297 12.8618Z" fill="#526C82" fill-opacity="0.8"/>
<path d="M218.891 9.89794C220.369 9.89794 221.768 9.79376 223.145 9.92572C224.668 10.0646 225.277 11.0925 224.989 12.665C224.634 14.5944 223.605 15.5431 221.676 15.6737C221.048 15.7154 220.417 15.6737 219.696 15.6737C219.56 16.1876 219.415 16.6585 219.3 17.135C219.184 17.6114 219.086 18.1073 218.962 18.688H217.059C217.603 15.7237 218.204 12.8428 218.891 9.89794ZM220.451 11.6371C220.305 12.4552 220.179 13.1414 220.06 13.8318C222.51 14.1749 223.126 13.7304 222.863 11.8871C222.156 11.3606 221.363 11.5968 220.451 11.6371Z" fill="#526C82" fill-opacity="0.8"/>
<rect x="195.072" y="2.25" width="41.8571" height="23.5" rx="6.5" stroke="#526C82" stroke-opacity="0.8"/>
</svg>
