<svg width="48" height="32" viewBox="0 0 48 32" fill="none" xmlns="http://www.w3.org/2000/svg">
  <rect width="48" height="32" rx="4" fill="white"/>
  <path d="M20.5 11L17.5 21H15L13 13.5C12.9 13.1 12.7 12.8 12.4 12.6C11.8 12.3 10.8 12 10 11.8L10.1 11.5H14C14.6 11.5 15.1 11.9 15.2 12.5L16 17.5L18.5 11.5H20.5V11ZM28 18.5C28 16.5 25 16.4 25 15.5C25 15.2 25.3 14.9 25.9 14.8C26.2 14.8 27.1 14.7 28.1 15.2L28.5 13.2C27.9 13 27.2 12.8 26.3 12.8C24.4 12.8 23 13.8 23 15.3C23 16.5 24.1 17.1 24.9 17.5C25.7 17.9 26 18.1 26 18.5C26 19 25.5 19.3 24.9 19.3C24 19.3 23.5 19.1 22.8 18.8L22.4 20.8C23.1 21.1 23.8 21.2 24.9 21.2C27 21.2 28 20.2 28 18.5ZM33 21H34.8L33.2 11.5H31.5C31 11.5 30.6 11.7 30.4 12.1L27.5 21H29.5L29.9 19.8H32.4L32.7 21ZM30.5 18L31.5 15L32 18H30.5ZM23 11L21.5 21H19.6L21.1 11H23Z" fill="#1434CB"/>
</svg>
